<svg width="40" height="40" viewBox="0 0 40 40" fill="none" xmlns="http://www.w3.org/2000/svg">
<rect width="40" height="40" rx="8" fill="#F3F4F6"/>
<path d="M20 12C15.5817 12 12 15.5817 12 20C12 24.4183 15.5817 28 20 28C24.4183 28 28 24.4183 28 20C28 15.5817 24.4183 12 20 12ZM20 26C16.6863 26 14 23.3137 14 20C14 16.6863 16.6863 14 20 14C23.3137 14 26 16.6863 26 20C26 23.3137 23.3137 26 20 26Z" fill="#9CA3AF"/>
<path d="M20 17C19.4477 17 19 17.4477 19 18V22C19 22.5523 19.4477 23 20 23C20.5523 23 21 22.5523 21 22V18C21 17.4477 20.5523 17 20 17Z" fill="#9CA3AF"/>
<circle cx="20" cy="15" r="1" fill="#9CA3AF"/>
</svg>

